<svg width="22" height="13" viewBox="0 0 22 13" fill="none" xmlns="http://www.w3.org/2000/svg">
<path d="M22.0006 5.36734V6.36129C22.0006 9.90639 19.5322 12.0599 16.2853 12.0599C12.6408 12.0599 10.0234 9.37628 10.0234 6.04654C10.0234 2.68367 12.6905 0 16.1031 0C18.3229 0 20.1949 1.09335 21.1723 2.65054L18.9193 3.94268C18.4389 3.18065 17.3952 2.58427 16.0865 2.58427C14.1318 2.58427 12.674 4.0255 12.674 6.06311C12.674 8.03444 14.0655 9.47567 16.3185 9.47567C17.8591 9.47567 18.8696 8.79647 19.2838 7.68656H16.1859V5.36734H22.0006Z" fill="#121117"/>
<path d="M7.05981 12.0599L4.78565 8.09739H3.47629V12.0599H0.719727V0H5.54371C7.8351 0 9.67855 1.84345 9.67855 4.13484C9.67855 5.61649 8.78266 6.96031 7.45607 7.63223L10.0231 12.0599H7.05981ZM3.47629 2.58428V5.6854H5.54371C6.30176 5.6854 6.92199 5.01349 6.92199 4.13484C6.92199 3.25619 6.30176 2.58428 5.54371 2.58428H3.47629Z" fill="#121117"/>
</svg>
