<svg width="1920" height="704" viewBox="0 0 1920 704" fill="none" xmlns="http://www.w3.org/2000/svg">
<g clip-path="url(#clip0_1732_13361)">
<path d="M431.878 503.928C429.32 508.58 425.609 512.495 421.101 515.298C416.65 518.065 411.51 519.521 406.269 519.501H342V517.474H342.445C344.156 516.813 345.564 515.546 346.4 513.914C347.324 512.432 347.804 510.717 347.784 508.97V430.71C347.766 428.969 347.289 427.264 346.4 425.766C345.497 424.222 344.106 423.022 342.445 422.355H342V420.378H406.665C409.28 420.31 411.882 420.775 414.312 421.744C416.742 422.714 418.949 424.168 420.799 426.018C422.649 427.868 424.104 430.076 425.073 432.505C426.043 434.935 426.508 437.537 426.44 440.153C426.463 444.508 424.839 448.712 421.892 451.919C419.494 454.53 416.647 456.69 413.487 458.296C417.198 459.194 420.671 460.881 423.672 463.24C427.527 466.191 430.641 470 432.768 474.364C434.939 478.795 436.056 483.668 436.031 488.602C436.078 494.11 434.716 499.538 432.076 504.373M357.622 425.766V455.429H400.139C404.422 455.528 408.573 453.949 411.707 451.029C413.25 449.73 414.491 448.111 415.345 446.284C416.199 444.457 416.645 442.466 416.651 440.449C416.706 438.5 416.362 436.561 415.639 434.75C414.917 432.939 413.831 431.295 412.449 429.919C410.776 428.425 408.82 427.283 406.697 426.561C404.573 425.839 402.326 425.552 400.09 425.717L357.622 425.766ZM357.622 461.461V514.161H398.953C404.023 514.305 409.041 513.093 413.487 510.651C417.351 508.461 420.534 505.244 422.683 501.357C424.715 497.135 425.731 492.496 425.649 487.811C425.691 483.316 424.566 478.888 422.386 474.957C420.091 471.036 416.855 467.749 412.971 465.392C409.087 463.036 404.677 461.685 400.139 461.461H357.622Z" fill="#929395"/>
<path d="M559.126 506.299L557.939 519.499H475.922V517.472H476.367C478.044 516.79 479.462 515.596 480.421 514.06C481.379 512.524 481.829 510.725 481.706 508.919V430.709C481.864 428.891 481.429 427.07 480.467 425.52C479.504 423.969 478.066 422.772 476.367 422.106H475.922V420.129H497.081V422.106H496.686C495.06 422.836 493.707 424.061 492.819 425.606C491.931 427.151 491.554 428.937 491.742 430.709V513.27H548.596C550.427 513.223 552.181 512.521 553.539 511.292C555.068 510.046 556.301 508.476 557.148 506.695V506.299H559.126Z" fill="#929395"/>
<path d="M658.7 514.704C651.766 518.15 644.094 519.847 636.354 519.647H634.969C626.922 519.652 618.991 517.737 611.832 514.061C605.259 510.711 600.026 505.217 597.001 498.488C595.379 493.718 594.642 488.692 594.826 483.657V430.709C594.972 428.886 594.526 427.065 593.556 425.515C592.585 423.966 591.141 422.77 589.437 422.106H588.992V420.129H610.152V422.106H609.756C608.131 422.836 606.777 424.061 605.889 425.606C605.002 427.151 604.625 428.937 604.812 430.709V484.151C604.724 487.302 604.989 490.452 605.603 493.544C606.562 496.876 608.193 499.977 610.395 502.655C612.597 505.333 615.324 507.532 618.408 509.117C625.522 512.599 633.464 514.037 641.347 513.27C648.558 513.373 655.57 510.902 661.122 506.299C666.033 501.669 669.149 495.453 669.922 488.749C670.127 485.555 670.127 482.351 669.922 479.158V430.709C669.857 428.872 669.138 427.119 667.895 425.765C666.678 424.227 665.121 422.992 663.347 422.156H662.753V420.178H683.073V422.156H682.677C680.76 422.938 679.062 424.177 677.733 425.765C676.504 427.123 675.803 428.877 675.756 430.709V481.58C675.884 488.519 674.341 495.386 671.257 501.602C668.568 507.225 664.127 511.822 658.601 514.704" fill="#929395"/>
<path d="M806.321 506.299L805.135 519.499H723.117V517.472H723.562C725.239 516.79 726.657 515.596 727.616 514.06C728.575 512.524 729.025 510.725 728.901 508.919V430.709C729.059 428.891 728.624 427.07 727.662 425.52C726.7 423.969 725.261 422.772 723.562 422.106H723.117V420.129H804.937L806.123 433.279H804.146V432.884C803.364 430.966 802.125 429.269 800.537 427.94C799.178 426.711 797.424 426.01 795.593 425.963H738.69V456.861H767.018C768.223 456.846 769.402 456.504 770.429 455.872C771.595 455.245 772.634 454.407 773.494 453.401C774.341 452.463 775.056 451.416 775.62 450.286V449.693H777.4V470.061H775.62V469.666C774.838 467.748 773.599 466.051 772.011 464.722C770.657 463.479 768.904 462.76 767.067 462.695H738.69V513.171H795.544C797.375 513.124 799.129 512.422 800.488 511.193C802.017 509.947 803.249 508.377 804.096 506.596V506.2L806.321 506.299Z" fill="#929395"/>
<path d="M1134.09 503.928C1131.56 508.601 1127.84 512.524 1123.31 515.298C1118.86 518.073 1113.72 519.529 1108.48 519.501H1044.21V517.474H1044.61C1046.34 516.828 1047.77 515.558 1048.61 513.914C1049.53 512.432 1050.02 510.717 1050 508.97V430.71C1049.98 428.969 1049.5 427.264 1048.61 425.766C1047.7 424.208 1046.29 423.005 1044.61 422.355H1044.21V420.378H1108.88C1111.49 420.31 1114.09 420.775 1116.52 421.744C1118.95 422.714 1121.16 424.168 1123.01 426.018C1124.86 427.868 1126.31 430.076 1127.28 432.505C1128.25 434.935 1128.72 437.537 1128.65 440.153C1128.65 444.504 1127.03 448.699 1124.1 451.919C1121.7 454.53 1118.86 456.69 1115.7 458.296C1119.41 459.194 1122.88 460.881 1125.88 463.24C1129.74 466.191 1132.85 470 1134.98 474.364C1137.25 479.065 1138.36 484.239 1138.23 489.458C1138.1 494.676 1136.73 499.789 1134.24 504.373M1059.83 425.766V455.429H1102.35C1106.63 455.528 1110.78 453.949 1113.92 451.029C1115.46 449.73 1116.7 448.111 1117.56 446.284C1118.41 444.457 1118.86 442.466 1118.86 440.449C1118.92 438.5 1118.57 436.561 1117.85 434.75C1117.13 432.939 1116.04 431.295 1114.66 429.919C1112.99 428.425 1111.03 427.283 1108.91 426.561C1106.78 425.839 1104.54 425.552 1102.3 425.717L1059.83 425.766ZM1059.83 461.461V514.161H1101.16C1106.23 514.305 1111.25 513.093 1115.7 510.651C1119.56 508.461 1122.74 505.244 1124.89 501.357C1126.93 497.135 1127.94 492.496 1127.86 487.811C1127.9 483.316 1126.78 478.888 1124.6 474.957C1122.3 471.036 1119.07 467.749 1115.18 465.392C1111.3 463.036 1106.89 461.685 1102.35 461.461H1059.83Z" fill="#929395"/>
<path d="M1278.66 495.82C1274.48 503.742 1268.11 510.296 1260.32 514.705C1251.56 519.528 1241.68 521.934 1231.69 521.676C1221.54 521.96 1211.49 519.555 1202.57 514.705C1194.76 510.407 1188.42 503.862 1184.38 495.919C1180.21 487.855 1178.09 478.892 1178.2 469.816C1178.09 460.704 1180.17 451.699 1184.28 443.564C1188.38 435.589 1194.74 429.002 1202.57 424.629C1211.53 419.951 1221.49 417.508 1231.59 417.508C1241.7 417.508 1251.65 419.951 1260.61 424.629C1268.42 429.019 1274.76 435.603 1278.86 443.564C1282.96 451.699 1285.05 460.704 1284.94 469.816C1285.04 478.871 1282.88 487.81 1278.66 495.82ZM1254.83 428.683C1249.82 425.317 1244.15 423.078 1238.19 422.122C1232.23 421.167 1226.14 421.517 1220.34 423.148C1214.53 424.78 1209.14 427.654 1204.56 431.572C1199.97 435.49 1196.29 440.358 1193.77 445.838C1190.48 453.395 1188.78 461.549 1188.78 469.791C1188.78 478.033 1190.48 486.187 1193.77 493.744C1197 500.666 1202.15 506.516 1208.6 510.602C1215.66 514.715 1223.68 516.882 1231.84 516.882C1240 516.882 1248.02 514.715 1255.08 510.602C1261.41 506.465 1266.45 500.621 1269.61 493.744C1272.9 486.187 1274.6 478.033 1274.6 469.791C1274.6 461.549 1272.9 453.395 1269.61 445.838C1266.46 438.877 1261.42 432.935 1255.08 428.683" fill="#929395"/>
<path d="M1425.49 495.82C1421.31 503.742 1414.94 510.296 1407.15 514.705C1398.39 519.528 1388.51 521.934 1378.52 521.676C1368.37 521.96 1358.33 519.555 1349.4 514.705C1341.61 510.385 1335.28 503.846 1331.21 495.919C1327.04 487.855 1324.92 478.892 1325.03 469.816C1324.92 460.704 1327.01 451.699 1331.11 443.564C1335.24 435.61 1341.6 429.03 1349.4 424.629C1358.36 419.951 1368.32 417.508 1378.42 417.508C1388.53 417.508 1398.49 419.951 1407.44 424.629C1415.25 429.019 1421.59 435.603 1425.69 443.564C1429.79 451.699 1431.88 460.704 1431.77 469.816C1431.87 478.871 1429.72 487.81 1425.49 495.82ZM1401.66 428.683C1396.66 425.317 1390.98 423.078 1385.02 422.122C1379.07 421.167 1372.97 421.517 1367.17 423.148C1361.36 424.78 1355.98 427.654 1351.39 431.572C1346.8 435.49 1343.12 440.358 1340.6 445.838C1337.31 453.395 1335.61 461.549 1335.61 469.791C1335.61 478.033 1337.31 486.187 1340.6 493.744C1343.78 500.623 1348.84 506.466 1355.19 510.602C1362.24 514.715 1370.26 516.882 1378.42 516.882C1386.59 516.882 1394.61 514.715 1401.66 510.602C1408 506.452 1413.05 500.613 1416.24 493.744C1419.51 486.179 1421.19 478.028 1421.19 469.791C1421.19 461.554 1419.51 453.403 1416.24 445.838C1413.06 438.883 1408.01 432.946 1401.66 428.683Z" fill="#929395"/>
<path d="M1577.6 519.499H1560.65L1501.03 471C1497.68 473.393 1494.47 475.985 1491.43 478.762C1490.15 480.003 1489.13 481.494 1488.44 483.144C1487.75 484.793 1487.41 486.566 1487.43 488.353V508.722C1487.34 510.478 1487.79 512.22 1488.71 513.714C1489.64 515.208 1491.01 516.382 1492.62 517.077H1493.02V519.104H1471.91V517.077H1472.3C1473.98 516.396 1475.41 515.204 1476.38 513.669C1477.34 512.134 1477.8 510.334 1477.69 508.524V430.709C1477.84 428.886 1477.39 427.065 1476.42 425.515C1475.45 423.966 1474.01 422.77 1472.3 422.106H1471.91V420.129H1493.02V422.106H1492.62C1490.95 422.796 1489.54 424.004 1488.61 425.553C1487.67 427.101 1487.26 428.908 1487.43 430.709V474.412C1490.54 471.524 1493.85 468.849 1497.32 466.403L1504.09 461.459L1518.92 451.917C1534.74 441.387 1545.92 433.428 1552.44 427.94C1552.89 427.58 1553.24 427.106 1553.45 426.568C1553.66 426.029 1553.72 425.445 1553.63 424.875C1553.58 424.283 1553.37 423.716 1553.02 423.236C1552.67 422.756 1552.2 422.382 1551.65 422.156H1551.01V420.178H1577.95V421.958L1577.36 422.354C1565.95 427.742 1555.06 434.162 1544.83 441.535C1539.92 445.095 1532.34 450.286 1522.09 457.108L1521.69 457.504C1516.75 460.816 1512.54 463.387 1509.73 465.266L1563.22 508.771C1567.54 512.279 1572.29 515.22 1577.36 517.522H1577.75V518.115L1577.6 519.499Z" fill="#929395"/>
<path d="M712.089 107.239L707.936 110.353L697.159 104.322L678.471 118.263L681.19 130.326L677.235 133.292L667.051 86.9691L670.66 84.25L712.089 107.239ZM672.192 90.3803L677.433 113.715L693.055 101.998L672.192 90.3803Z" fill="#929395"/>
<path d="M770.722 76.2365L752.43 66.3489L741.405 71.5399L748.425 86.3713L744.075 88.3982L725.832 49.985L742.493 42.2232C744.436 41.2625 746.523 40.6279 748.672 40.3446C750.502 40.099 752.36 40.1827 754.16 40.5917C755.828 41.0503 757.378 41.8594 758.708 42.9648C760.065 44.1419 761.159 45.5903 761.922 47.2165C762.613 48.6948 763.032 50.2858 763.158 51.913C763.246 53.392 763.027 54.8733 762.515 56.2635C761.998 57.696 761.246 59.0326 760.29 60.2186C759.257 61.48 758.04 62.5798 756.681 63.4815L776.011 73.7646L770.722 76.2365ZM752.43 44.9917C749.6 44.5111 746.691 44.9988 744.173 46.3759L732.21 52.0119L739.576 67.7826L751.49 62.1961C752.844 61.5585 754.108 60.7439 755.248 59.7737C756.222 58.896 757.041 57.8597 757.67 56.7085C758.239 55.5818 758.536 54.3372 758.536 53.0748C758.536 51.8125 758.239 50.5678 757.67 49.4411C757.205 48.3325 756.483 47.3506 755.563 46.5768C754.643 45.803 753.552 45.2596 752.38 44.9917" fill="#929395"/>
<path d="M826.837 57.305L821.894 58.8376L813.835 49.4938L791.539 56.2668L790.006 68.5768L785.062 70.0106L791.143 23.094L795.444 21.8086L826.837 57.305ZM795.049 27.9388L792.083 51.6691L810.721 45.9837L795.049 27.9388Z" fill="#929395"/>
<path d="M868.811 50.2886L853.98 35.7538L841.868 37.6325L844.438 54.0953L839.495 54.8368L833.117 12.8146L851.31 9.9472C853.457 9.62698 855.64 9.62698 857.787 9.9472C859.616 10.2277 861.377 10.8481 862.978 11.7764C864.452 12.666 865.716 13.8633 866.685 15.2865C867.653 16.7837 868.293 18.4685 868.564 20.2303C868.877 21.8634 868.877 23.541 868.564 25.1741C868.221 26.6153 867.6 27.9756 866.735 29.1785C865.811 30.39 864.711 31.4565 863.472 32.3426C862.137 33.2656 860.67 33.9823 859.121 34.4684L874.793 49.7447L868.811 50.2886ZM860.011 15.1382C857.41 13.8974 854.468 13.5665 851.656 14.1989L838.605 16.2258L841.274 33.4302L854.277 31.4032C855.763 31.1769 857.211 30.7443 858.578 30.1179C859.761 29.5574 860.833 28.7869 861.742 27.8437C862.591 26.9661 863.218 25.8983 863.571 24.7292C863.957 23.4983 864.042 22.1928 863.818 20.9224C863.698 19.7225 863.289 18.5696 862.626 17.5623C861.963 16.5549 861.066 15.7232 860.011 15.1382Z" fill="#929395"/>
<path d="M918.254 9.39997L892.151 9.99328L892.497 24.6269L915.832 24.083L915.93 28.483L892.596 29.0268L892.942 43.9571L919.342 43.3639L919.441 47.7639L888.196 48.5054L887.207 5.74161L918.155 5L918.254 9.39997Z" fill="#929395"/>
<path d="M966.701 22.6991C966.934 23.6459 967.411 24.5152 968.085 25.2204C969.017 26.163 970.083 26.9627 971.249 27.5934C973.017 28.5623 974.85 29.4048 976.737 30.1148C980.38 31.363 983.681 33.4453 986.377 36.1956C987.335 37.3096 988.02 38.6306 988.381 40.0547C988.741 41.4788 988.766 42.967 988.453 44.4023C988.21 46.1714 987.568 47.8621 986.575 49.3461C985.623 50.6962 984.392 51.8258 982.966 52.6584C981.445 53.5312 979.763 54.0863 978.022 54.2899C976.058 54.6101 974.054 54.6101 972.089 54.2899C968.931 53.7924 965.895 52.7021 963.141 51.0765C960.379 49.4109 957.948 47.2486 955.973 44.6989L959.532 41.6832C961.203 43.8604 963.205 45.7621 965.465 47.3191C967.755 48.7448 970.312 49.687 972.979 50.0876C975.395 50.6316 977.924 50.3351 980.148 49.2472C981.085 48.7694 981.891 48.0687 982.495 47.2067C983.098 46.3447 983.481 45.3478 983.609 44.3034C983.784 43.3889 983.784 42.4494 983.609 41.5349C983.372 40.6291 982.913 39.7966 982.274 39.1125C981.387 38.1744 980.351 37.3893 979.209 36.7889C977.522 35.8908 975.789 35.0821 974.018 34.3664C971.932 33.5777 969.915 32.6187 967.986 31.499C966.475 30.6688 965.12 29.5814 963.982 28.2856C963.014 27.1953 962.319 25.8905 961.955 24.4788C961.6 22.85 961.6 21.1639 961.955 19.535C962.211 17.9301 962.837 16.4069 963.784 15.0857C964.694 13.774 965.895 12.691 967.294 11.9216C968.817 11.0448 970.496 10.4738 972.238 10.2407C974.119 9.91977 976.042 9.91977 977.923 10.2407C980.696 10.6314 983.376 11.519 985.833 12.8609C988.11 14.175 990.163 15.8439 991.914 17.8047L988.503 21.0182C986.997 19.2203 985.191 17.698 983.164 16.5193C981.276 15.4613 979.218 14.7419 977.083 14.3935C975.838 14.1981 974.57 14.1981 973.325 14.3935C972.238 14.5425 971.185 14.8769 970.211 15.3823C969.358 15.8431 968.616 16.4841 968.036 17.2609C967.485 18.0439 967.114 18.9385 966.948 19.8811C966.773 20.7956 966.773 21.7351 966.948 22.6496" fill="#929395"/>
<path d="M1015.49 63.4326L1010.85 62.0484L1021.63 25.316L1007.83 21.2621L1009.12 16.9609L1041.3 26.4531L1040.07 30.7047L1026.27 26.6508L1015.49 63.4326Z" fill="#929395"/>
<path d="M1081.79 75.3999C1079.81 77.3836 1077.46 78.9621 1074.87 80.0471C1072.14 81.2055 1069.2 81.7776 1066.24 81.7265C1063.27 81.6754 1060.35 81.0022 1057.67 79.7504C1054.89 78.6089 1052.37 76.9285 1050.25 74.8066C1048.35 72.7005 1046.88 70.2504 1045.9 67.5887C1044.98 64.9554 1044.58 62.1685 1044.71 59.382C1044.85 56.4936 1045.54 53.6582 1046.74 51.027C1049 45.7364 1053.22 41.5219 1058.51 39.2608C1061.14 38.1658 1063.96 37.6109 1066.81 37.6294C1069.89 37.6556 1072.92 38.3294 1075.71 39.6068C1078.5 40.7136 1081.03 42.3984 1083.13 44.5506C1085.02 46.6391 1086.5 49.0728 1087.48 51.7191C1088.42 54.3484 1088.82 57.1385 1088.66 59.9258C1088.52 62.8239 1087.85 65.6715 1086.69 68.3303C1085.5 70.9753 1083.82 73.3734 1081.74 75.3999M1083.62 59.5798C1083.74 57.3477 1083.42 55.1139 1082.68 53.0045C1081.94 50.9244 1080.8 49.0097 1079.32 47.3686C1077.77 45.6453 1075.86 44.2789 1073.73 43.3641C1071.62 42.4042 1069.33 41.8989 1067.01 41.881C1064.81 41.8652 1062.64 42.3203 1060.63 43.2158C1058.61 44.0903 1056.78 45.3497 1055.24 46.9236C1053.56 48.5731 1052.21 50.5387 1051.29 52.7079C1050.32 54.8583 1049.76 57.1734 1049.66 59.5303C1049.54 61.7462 1049.86 63.9639 1050.6 66.0562C1051.33 68.1414 1052.47 70.0581 1053.96 71.6921C1055.52 73.4153 1057.42 74.7956 1059.55 75.7459C1061.66 76.6917 1063.95 77.1803 1066.27 77.1797C1068.46 77.1878 1070.63 76.7505 1072.65 75.8943C1074.67 75.0312 1076.5 73.7704 1078.04 72.1864C1079.7 70.519 1081.04 68.5579 1081.99 66.4022C1082.96 64.2518 1083.51 61.9367 1083.62 59.5798Z" fill="#929395"/>
<path d="M1115.6 110.996L1113.97 90.3307L1103.64 83.8049L1094.79 97.8453L1090.68 95.2745L1113.52 59.0859L1129.1 68.9735C1130.94 70.1029 1132.61 71.5027 1134.04 73.1263C1135.26 74.585 1136.18 76.2633 1136.76 78.0701C1137.27 79.6647 1137.44 81.3495 1137.25 83.0139C1136.74 86.3984 1134.98 89.4675 1132.31 91.6161C1131.11 92.482 1129.75 93.1035 1128.31 93.4453C1126.82 93.6951 1125.3 93.6951 1123.81 93.4453C1122.1 93.2689 1120.44 92.8356 1118.86 92.1599L1120.69 113.962L1115.6 110.996ZM1132.06 78.7128C1130.92 76.0863 1128.94 73.9131 1126.43 72.5331L1115.2 65.4634L1105.91 80.2948L1117.08 87.315C1118.34 88.1156 1119.71 88.7316 1121.14 89.1442C1122.41 89.4902 1123.73 89.6238 1125.04 89.5397C1126.25 89.4097 1127.41 89.0218 1128.45 88.4026C1129.54 87.7168 1130.46 86.7857 1131.12 85.6836C1131.83 84.7033 1132.29 83.5635 1132.45 82.365C1132.62 81.1665 1132.48 79.9462 1132.06 78.8117" fill="#929395"/>
<path d="M1144.18 133.041L1140.48 129.976L1151.3 116.924L1154.17 85.6797L1158.67 89.4369L1156.05 115.095L1180.92 107.927L1185.22 111.536L1155.06 119.99L1144.18 133.041Z" fill="#929395"/>
<path d="M924.629 160.234V167.156C924.629 167.156 931.451 170.27 931.995 175.461C932.539 180.652 931.995 277.699 931.995 277.699C931.995 277.699 932.935 311.91 931.995 313.887C930.523 317.073 928.321 319.868 925.568 322.045V327.73H933.577C937.269 321 939.223 313.456 939.263 305.78C939.757 291.838 939.263 179.317 939.263 179.317C938.127 172.53 935.638 166.041 931.946 160.234H924.629Z" fill="#929395"/>
<path d="M960.076 161.227H951.82V327.437H960.076V161.227Z" fill="#929395"/>
<path d="M956.91 160.73C966.124 161.04 975.299 162.081 984.348 163.845C990.033 165.872 1003.48 176.748 1005.56 189.108C1007.63 201.467 998.289 228.362 975.894 229.894H956.712V223.714C956.712 223.714 973.867 226.285 983.161 220.6C992.456 214.914 1002.24 205.768 997.993 187.031C993.741 168.295 974.559 167.602 956.613 167.009L956.91 160.73Z" fill="#929395"/>
<path d="M956.91 160.73C956.91 160.73 992.604 160.73 1002.69 161.225C1010.28 162.566 1017.18 166.485 1022.21 172.322C1027.25 178.159 1030.11 185.555 1030.33 193.261C1030.33 212.344 1023.6 233.503 975.944 229.894L976.191 224.407C976.191 224.407 1013.66 228.856 1022.42 205.62C1031.17 182.384 1010.7 165.674 981.184 165.773L956.762 167.009L956.91 160.73Z" fill="#929395"/>
<path d="M961.118 160.48H924.484V167.204H961.118V160.48Z" fill="#929395"/>
<path d="M966.309 320.758H924.484V327.481H966.309V320.758Z" fill="#929395"/>
<path d="M958.941 320.76C958.941 320.76 978.172 322.836 991.076 316.112C1003.98 309.389 1025.14 291.393 1012.78 258.814C1000.42 226.234 970.707 231.079 966.555 229.645L966.307 224.257C979.919 223.186 993.417 227.42 1003.98 236.072C1013.02 243.382 1019.32 253.538 1021.85 264.885C1024.38 276.232 1023 288.102 1017.92 298.562C1006.55 322.292 980.002 327.434 956.914 327.73L958.941 320.76Z" fill="#929395"/>
<path d="M988.939 224.552C988.939 224.552 1011.88 224.058 1023.15 232.413C1034.42 240.768 1057.76 262.076 1042.68 298.561C1027.6 335.046 968.522 327.433 966.297 327.433V320.759C966.297 320.759 1006.54 326.444 1026.71 307.855C1046.88 289.267 1043.22 248.975 1020.48 237.653C997.739 226.332 983.452 229.892 983.452 229.892L988.939 224.552Z" fill="#929395"/>
<path d="M926.948 160.285V167.206C926.948 167.206 920.076 170.321 919.582 175.512C919.088 180.703 919.582 277.75 919.582 277.75C919.582 277.75 918.593 311.961 919.335 313.938C920.807 317.124 923.008 319.919 925.762 322.095V327.781H917.753C914.088 321.04 912.135 313.502 912.067 305.83C911.573 291.889 912.067 179.368 912.067 179.368C913.203 172.581 915.692 166.092 919.384 160.285H926.948Z" fill="#929395"/>
<path d="M899.662 161.328H891.406V327.538H899.662V161.328Z" fill="#929395"/>
<path d="M894.672 160.824C885.443 161.113 876.251 162.138 867.185 163.889C861.499 165.966 848.102 176.793 846.025 189.152C843.949 201.512 853.243 228.406 875.441 229.938H894.672V223.759C894.672 223.759 877.517 226.329 868.223 220.644C858.929 214.959 849.14 205.813 853.392 187.125C857.643 168.438 876.875 167.647 894.821 167.053L894.672 160.824Z" fill="#929395"/>
<path d="M894.665 160.824C894.665 160.824 858.971 160.824 848.886 161.319C841.299 162.649 834.404 166.559 829.368 172.387C824.333 178.216 821.465 185.605 821.25 193.305C821.25 212.388 827.974 233.547 875.632 229.938L875.385 224.451C875.385 224.451 837.96 228.9 829.16 205.714C820.36 182.527 840.877 165.768 870.391 165.867L894.863 167.053L894.665 160.824Z" fill="#929395"/>
<path d="M927.055 160.535H890.422V167.259H927.055V160.535Z" fill="#929395"/>
<path d="M927.047 320.805H885.223V327.528H927.047V320.805Z" fill="#929395"/>
<path d="M892.591 320.81C892.591 320.81 873.36 322.887 860.457 316.163C847.553 309.44 826.394 291.444 838.803 258.865C851.212 226.285 880.875 231.13 884.978 229.696L885.274 224.357C871.645 223.263 858.123 227.498 847.553 236.173C838.531 243.485 832.245 253.632 829.715 264.966C827.184 276.3 828.557 288.157 833.612 298.613C844.983 322.343 871.531 327.534 894.668 327.781L892.591 320.81Z" fill="#929395"/>
<path d="M862.634 224.599C862.634 224.599 839.694 224.105 828.423 232.46C817.151 240.815 793.816 262.123 808.647 298.608C823.479 335.093 882.804 327.529 885.078 327.529V320.805C885.078 320.805 844.786 326.491 824.665 307.902C804.544 289.314 808.153 249.071 830.845 237.7C853.537 226.33 867.923 229.939 867.923 229.939L862.634 224.599Z" fill="#929395"/>
<path d="M919.429 271.672H911.914V700.002H919.429V271.672Z" fill="#929395"/>
<path d="M939.655 271.672H932.141V700.002H939.655V271.672Z" fill="#929395"/>
<path d="M926.749 164.633C922.141 164.643 917.634 163.285 913.799 160.733C909.963 158.18 906.971 154.547 905.201 150.293C903.431 146.039 902.963 141.356 903.855 136.835C904.748 132.315 906.962 128.162 910.217 124.9C913.471 121.639 917.62 119.416 922.138 118.514C926.657 117.611 931.341 118.069 935.599 119.83C939.856 121.591 943.496 124.576 946.057 128.406C948.618 132.236 949.985 136.74 949.985 141.348C949.985 147.515 947.538 153.43 943.182 157.795C938.826 162.161 932.916 164.62 926.749 164.633ZM926.749 124.44C923.391 124.43 920.106 125.418 917.309 127.277C914.513 129.137 912.332 131.784 911.042 134.885C909.753 137.986 909.413 141.399 910.066 144.693C910.718 147.987 912.334 151.013 914.709 153.388C917.083 155.762 920.109 157.378 923.403 158.031C926.697 158.684 930.111 158.344 933.212 157.054C936.312 155.764 938.96 153.583 940.819 150.787C942.679 147.991 943.666 144.706 943.657 141.348C943.644 136.868 941.858 132.575 938.69 129.407C935.522 126.239 931.229 124.453 926.749 124.44Z" fill="#929395"/>
<path d="M954.684 341.18H896.348V349.831H954.684V341.18Z" fill="#929395"/>
<path d="M1022.76 689.27H912.117V699.998H1022.76V689.27Z" fill="#929395"/>
<path d="M1022.76 679.582H1012.03V698.912H1022.76V679.582Z" fill="#929395"/>
<path d="M983.017 626.984H917.512V637.712H983.017V626.984Z" fill="#929395"/>
<path d="M991.611 622.672H980.883V642.002H991.611V622.672Z" fill="#929395"/>
</g>
<defs>
<clipPath id="clip0_1732_13361">
<rect width="1920" height="704" fill="white"/>
</clipPath>
</defs>
</svg>
