<svg width="1920" height="704" viewBox="0 0 1920 704" fill="none" xmlns="http://www.w3.org/2000/svg">
<path d="M261.315 194.238C260.009 206.651 259.03 218.737 258.377 230.496C258.051 241.929 257.888 250.749 257.888 256.955C257.888 264.794 258.051 272.144 258.377 279.004C258.704 285.863 259.03 291.906 259.357 297.133H248.096C245.811 274.267 242.71 256.302 238.793 243.236C234.876 229.843 228.022 220.207 218.229 214.327C208.437 208.447 193.259 205.508 172.696 205.508H141.85C130.753 205.508 122.266 206.487 116.391 208.447C110.842 210.081 107.088 213.837 105.13 219.717C103.171 225.27 102.192 234.089 102.192 246.175V489.203C102.192 500.962 103.334 509.782 105.619 515.662C108.231 521.541 113.127 525.461 120.308 527.421C127.488 529.381 137.933 530.688 151.643 531.341V541.14C143.156 540.487 132.385 540.16 119.328 540.16C106.272 539.834 93.0526 539.67 79.67 539.67C66.9401 539.67 55.0263 539.834 43.9285 540.16C32.8307 540.16 23.8545 540.487 17 541.14V531.341C28.0978 530.688 36.4212 529.381 41.9701 527.421C47.8454 525.461 51.7623 521.541 53.7207 515.662C55.6791 509.782 56.6583 500.962 56.6583 489.203V246.175C56.6583 234.089 55.6791 225.27 53.7207 219.717C51.7623 213.837 47.8454 209.917 41.9701 207.957C36.4212 205.671 28.0978 204.364 17 204.038V194.238C29.077 194.565 41.8069 194.891 55.1895 195.218C68.5722 195.218 81.7916 195.381 94.8479 195.708C107.904 195.708 119.981 195.708 131.079 195.708C142.503 195.708 151.806 195.708 158.987 195.708C174.001 195.708 190.974 195.708 209.906 195.708C229.164 195.381 246.3 194.891 261.315 194.238ZM185.426 366.709C185.426 366.709 185.426 368.343 185.426 371.609C185.426 374.876 185.426 376.509 185.426 376.509H87.5037C87.5037 376.509 87.5037 374.876 87.5037 371.609C87.5037 368.343 87.5037 366.709 87.5037 366.709H185.426ZM194.728 302.033C193.423 320.652 192.77 334.861 192.77 344.66C193.096 354.46 193.259 363.443 193.259 371.609C193.259 379.775 193.423 388.758 193.749 398.558C194.075 408.357 194.891 422.566 196.197 441.185H184.936C183.63 430.733 181.998 420.607 180.04 410.807C178.408 400.681 174.491 392.515 168.289 386.308C162.414 379.775 152.295 376.509 137.933 376.509V366.709C148.705 366.709 156.865 364.586 162.414 360.34C168.289 355.767 172.533 350.05 175.144 343.19C177.755 336.331 179.55 329.308 180.529 322.122C181.509 314.609 182.488 307.912 183.467 302.033H194.728Z" fill="#848484"/>
<path d="M363.888 157V495.573C363.888 509.292 366.663 518.602 372.212 523.501C378.087 528.401 387.716 530.851 401.098 530.851V541.14C395.55 540.814 387.063 540.487 375.639 540.16C364.541 539.507 353.28 539.18 341.856 539.18C330.758 539.18 319.497 539.507 308.073 540.16C296.648 540.487 288.162 540.814 282.613 541.14V530.851C295.996 530.851 305.461 528.401 311.01 523.501C316.886 518.602 319.823 509.292 319.823 495.573V215.797C319.823 201.098 317.212 190.318 311.99 183.459C306.767 176.272 296.975 172.679 282.613 172.679V162.39C293.058 163.37 303.177 163.86 312.969 163.86C322.435 163.86 331.411 163.37 339.897 162.39C348.71 161.083 356.707 159.287 363.888 157Z" fill="#848484"/>
<path d="M540.327 281.944C569.051 281.944 591.41 290.763 607.404 308.402C623.724 325.715 631.884 352.827 631.884 389.738H459.052L458.563 380.429H584.882C585.535 364.423 584.229 349.723 580.965 336.331C577.701 322.612 572.478 311.669 565.297 303.503C558.443 295.336 549.467 291.253 538.369 291.253C523.354 291.253 509.972 298.766 498.221 313.792C486.797 328.818 479.942 352.663 477.657 385.328L479.126 387.288C478.473 392.188 477.984 397.578 477.657 403.457C477.331 409.337 477.168 415.217 477.168 421.097C477.168 443.309 480.758 462.418 487.939 478.424C495.12 494.429 504.423 506.679 515.847 515.172C527.597 523.338 539.674 527.421 552.078 527.421C561.87 527.421 571.173 525.951 579.986 523.011C588.799 519.745 596.959 514.518 604.466 507.332C611.973 500.146 618.502 490.51 624.05 478.424L633.843 482.343C630.252 493.123 624.377 503.576 616.217 513.702C608.057 523.828 597.775 532.157 585.371 538.69C572.968 544.897 558.606 548 542.286 548C518.784 548 498.547 542.61 481.574 531.831C464.927 521.051 452.034 506.189 442.895 487.243C434.082 467.971 429.676 445.922 429.676 421.097C429.676 392.351 434.245 367.689 443.385 347.11C452.524 326.205 465.417 310.199 482.064 299.093C498.71 287.66 518.132 281.944 540.327 281.944Z" fill="#848484"/>
<path d="M891.308 283.414V488.223C891.308 502.922 893.919 513.865 899.142 521.051C904.691 527.911 914.483 531.341 928.519 531.341V541.63C918.4 540.65 908.281 540.16 898.163 540.16C888.697 540.16 879.558 540.65 870.745 541.63C862.258 542.61 854.424 544.407 847.243 547.02V489.203C839.083 510.435 827.496 525.625 812.481 534.771C797.793 543.59 782.615 548 766.948 548C755.523 548 745.568 546.367 737.081 543.1C728.595 539.834 721.577 535.261 716.028 529.381C709.826 522.848 705.583 514.355 703.298 503.902C701.013 493.449 699.871 480.547 699.871 465.194V342.211C699.871 327.511 697.26 316.732 692.037 309.872C686.815 302.686 677.023 299.093 662.661 299.093V288.803C673.106 289.783 683.224 290.273 693.016 290.273C702.482 290.273 711.458 289.783 719.945 288.803C728.758 287.497 736.755 285.7 743.936 283.414V475.974C743.936 486.1 744.589 495.409 745.894 503.902C747.2 512.395 750.464 519.255 755.687 524.481C760.909 529.708 769.396 532.321 781.146 532.321C793.876 532.321 805.137 528.401 814.929 520.561C825.048 512.722 832.882 502.106 838.43 488.713C844.306 475.32 847.243 460.294 847.243 443.635V342.211C847.243 327.511 844.632 316.732 839.41 309.872C834.187 302.686 824.395 299.093 810.033 299.093V288.803C820.478 289.783 830.597 290.273 840.389 290.273C849.855 290.273 858.831 289.783 867.317 288.803C876.13 287.497 884.127 285.7 891.308 283.414Z" fill="#848484"/>
<path d="M1105.78 281.944C1114.6 281.944 1122.27 283.74 1128.8 287.333C1135.65 290.926 1140.87 295.663 1144.46 301.543C1148.38 307.096 1150.34 313.465 1150.34 320.652C1150.34 328.818 1147.73 336.004 1142.5 342.211C1137.61 348.417 1130.92 351.52 1122.43 351.52C1115.58 351.52 1109.54 349.397 1104.32 345.15C1099.09 340.577 1096.48 334.208 1096.48 326.041C1096.48 319.835 1098.11 314.609 1101.38 310.362C1104.97 305.789 1108.88 302.196 1113.13 299.583C1110.84 296.316 1107.42 294.683 1102.85 294.683C1092.73 294.683 1083.43 297.786 1074.94 303.992C1066.45 309.872 1059.27 317.548 1053.4 327.021C1047.52 336.494 1042.95 346.62 1039.69 357.4C1036.42 367.853 1034.79 377.652 1034.79 386.798V490.673C1034.79 506.679 1039.36 517.458 1048.5 523.011C1057.97 528.238 1070.7 530.851 1086.69 530.851V541.14C1079.18 540.814 1068.57 540.487 1054.86 540.16C1041.16 539.507 1026.63 539.18 1011.29 539.18C1000.19 539.18 989.094 539.507 977.996 540.16C967.224 540.487 959.064 540.814 953.515 541.14V530.851C966.898 530.851 976.364 528.401 981.913 523.501C987.788 518.602 990.726 509.292 990.726 495.573V342.211C990.726 327.511 988.114 316.732 982.892 309.872C977.669 302.686 967.877 299.093 953.515 299.093V288.803C963.96 289.783 974.079 290.273 983.871 290.273C993.337 290.273 1002.31 289.783 1010.8 288.803C1019.61 287.497 1027.61 285.7 1034.79 283.414V344.66C1038.38 335.188 1043.44 325.715 1049.97 316.242C1056.82 306.442 1064.98 298.276 1074.45 291.743C1083.91 285.21 1094.36 281.944 1105.78 281.944Z" fill="#848484"/>
<path d="M1281.94 281.944C1302.83 281.944 1321.59 286.517 1338.24 295.663C1354.89 304.809 1368.11 319.182 1377.9 338.781C1388.02 358.38 1393.08 383.858 1393.08 415.217C1393.08 446.575 1388.02 472.054 1377.9 491.653C1368.11 510.925 1354.89 525.135 1338.24 534.281C1321.59 543.427 1302.83 548 1281.94 548C1261.37 548 1242.6 543.427 1225.63 534.281C1208.98 525.135 1195.6 510.925 1185.48 491.653C1175.69 472.054 1170.79 446.575 1170.79 415.217C1170.79 383.858 1175.69 358.38 1185.48 338.781C1195.6 319.182 1208.98 304.809 1225.63 295.663C1242.6 286.517 1261.37 281.944 1281.94 281.944ZM1281.94 291.743C1263.33 291.743 1247.99 301.379 1235.91 320.652C1224.16 339.924 1218.29 371.446 1218.29 415.217C1218.29 458.988 1224.16 490.51 1235.91 509.782C1247.99 528.728 1263.33 538.201 1281.94 538.201C1300.54 538.201 1315.72 528.728 1327.47 509.782C1339.55 490.51 1345.59 458.988 1345.59 415.217C1345.59 371.446 1339.55 339.924 1327.47 320.652C1315.72 301.379 1300.54 291.743 1281.94 291.743Z" fill="#848484"/>
<path d="M1594.72 281.944C1607.13 281.944 1617.41 283.577 1625.57 286.843C1634.06 290.11 1641.07 294.683 1646.62 300.563C1652.82 307.096 1657.23 315.262 1659.84 325.061C1662.45 334.861 1663.76 348.09 1663.76 364.749V495.573C1663.76 509.292 1666.53 518.602 1672.08 523.501C1677.96 528.401 1687.59 530.851 1700.97 530.851V541.14C1695.42 540.814 1686.93 540.487 1675.51 540.16C1664.09 539.507 1652.99 539.18 1642.22 539.18C1631.44 539.18 1620.84 539.507 1610.39 540.16C1600.27 540.487 1592.6 540.814 1587.38 541.14V530.851C1599.13 530.851 1607.45 528.401 1612.35 523.501C1617.25 518.602 1619.69 509.292 1619.69 495.573V353.97C1619.69 343.844 1618.88 334.534 1617.25 326.041C1615.61 317.548 1611.86 310.689 1605.98 305.462C1600.44 300.236 1591.79 297.623 1580.04 297.623C1566.33 297.623 1554.25 301.543 1543.8 309.382C1533.69 317.222 1525.69 328.001 1519.81 341.721C1514.26 355.113 1511.49 370.139 1511.49 386.798V495.573C1511.49 509.292 1513.94 518.602 1518.83 523.501C1523.73 528.401 1532.05 530.851 1543.8 530.851V541.14C1538.58 540.814 1530.75 540.487 1520.3 540.16C1510.18 539.507 1499.74 539.18 1488.97 539.18C1478.2 539.18 1467.1 539.507 1455.67 540.16C1444.25 540.487 1435.76 540.814 1430.21 541.14V530.851C1443.6 530.851 1453.06 528.401 1458.61 523.501C1464.49 518.602 1467.43 509.292 1467.43 495.573V342.211C1467.43 327.511 1464.81 316.732 1459.59 309.872C1454.37 302.686 1444.58 299.093 1430.21 299.093V288.803C1440.66 289.783 1450.78 290.273 1460.57 290.273C1470.04 290.273 1479.01 289.783 1487.5 288.803C1496.31 287.497 1504.31 285.7 1511.49 283.414V341.231C1519.98 319.018 1531.73 303.666 1546.74 295.173C1562.08 286.353 1578.08 281.944 1594.72 281.944Z" fill="#848484"/>
<path d="M1810 281.944C1823.05 281.944 1834.15 284.067 1843.29 288.313C1852.43 292.56 1859.12 296.48 1863.36 300.073C1874.13 308.892 1880.66 303.013 1882.95 282.434H1894.21C1893.56 291.58 1893.07 302.523 1892.74 315.262C1892.41 327.675 1892.25 344.497 1892.25 365.729H1880.99C1879.03 353.643 1875.6 341.884 1870.71 330.451C1866.14 319.018 1859.28 309.709 1850.14 302.523C1841 295.01 1829.09 291.253 1814.4 291.253C1802.98 291.253 1793.35 294.52 1785.51 301.053C1778.01 307.259 1774.25 316.569 1774.25 328.981C1774.25 338.781 1777.19 347.274 1783.07 354.46C1788.94 361.32 1796.61 367.853 1806.08 374.059C1815.54 379.939 1825.83 386.472 1836.92 393.658C1849.33 401.498 1860.59 409.5 1870.71 417.667C1880.83 425.833 1888.82 434.816 1894.7 444.615C1900.9 454.415 1904 466.011 1904 479.404C1904 494.429 1900.08 507.005 1892.25 517.132C1884.42 527.258 1874.13 534.934 1861.4 540.16C1849 545.387 1835.29 548 1820.28 548C1813.1 548 1806.24 547.347 1799.71 546.04C1793.51 545.06 1787.47 543.427 1781.6 541.14C1778.33 539.507 1774.91 537.547 1771.32 535.261C1768.05 532.974 1764.79 530.524 1761.52 527.911C1758.26 525.298 1755.32 525.461 1752.71 528.401C1750.1 531.014 1748.14 536.404 1746.84 544.57H1735.57C1736.23 534.117 1736.72 521.378 1737.04 506.352C1737.37 491.326 1737.53 471.401 1737.53 446.575H1748.79C1751.08 464.868 1754.34 480.873 1758.59 494.593C1762.83 508.312 1769.52 519.091 1778.66 526.931C1787.8 534.444 1800.53 538.201 1816.85 538.201C1823.38 538.201 1829.91 536.731 1836.43 533.791C1843.29 530.851 1849 525.951 1853.57 519.091C1858.14 512.232 1860.42 503.086 1860.42 491.653C1860.42 477.28 1855.2 465.521 1844.76 456.375C1834.31 447.228 1821.09 437.592 1805.1 427.466C1793.35 419.953 1782.25 412.44 1771.81 404.927C1761.69 397.414 1753.36 388.921 1746.84 379.449C1740.63 369.976 1737.53 358.543 1737.53 345.15C1737.53 330.451 1740.8 318.528 1747.33 309.382C1754.18 299.909 1763.16 293.05 1774.25 288.803C1785.35 284.23 1797.27 281.944 1810 281.944Z" fill="#848484"/>
</svg>
