<svg width="1920" height="704" viewBox="0 0 1920 704" fill="none" xmlns="http://www.w3.org/2000/svg">
<g clip-path="url(#clip0_1732_13366)">
<path d="M1377.07 572.749C1377.1 584.842 1373.78 593.362 1361.55 597C1356.85 597 1352.18 597 1347.48 597C1336.3 593.133 1331.14 584.612 1328.02 573.765C1285.25 424.918 1242.28 276.137 1199.38 127.323C1198.85 125.553 1198.26 123.783 1196.49 122.112C1196.49 279.316 1196.49 436.519 1196.49 593.985C1192.71 593.985 1189.85 593.985 1186.33 593.985C1186.33 590.97 1186.33 588.283 1186.33 585.563C1186.33 445.204 1186.39 304.844 1186.26 164.485C1186.23 145.347 1188.86 125.815 1179.03 107.234C1191.13 107.234 1202.21 106.611 1213.22 107.398C1224.4 108.217 1230.35 116.148 1233.47 126.045C1237.61 139.153 1241.26 152.425 1245.08 165.632C1284.49 302.223 1323.88 438.846 1363.29 575.436C1363.85 577.37 1364.61 579.271 1366.52 581.04C1366.52 423.378 1366.52 265.683 1366.52 107.562C1370.17 107.562 1373.06 107.562 1376.87 107.562C1376.87 109.823 1376.87 112.281 1376.87 114.706C1376.9 267.42 1376.81 420.101 1377.07 572.749ZM1646.84 567.604C1638.79 527.558 1631.55 487.38 1624.09 447.203C1611.96 381.857 1599.86 316.544 1587.73 251.198C1580.14 210.431 1572.54 169.63 1564.85 128.896C1562.62 117.098 1553.77 107.889 1543.55 107.398C1532.3 106.841 1521.03 107.267 1509 107.267C1514.52 120.965 1514.68 134.631 1512.38 148.395C1510.31 160.913 1507.91 173.399 1505.68 185.885C1494.33 249.199 1482.99 312.546 1471.62 375.86C1460.28 438.977 1448.93 502.094 1437.59 565.212C1435.88 574.683 1434.34 584.186 1432.66 594.018C1436.7 594.018 1439.79 594.018 1443.08 594.018C1471.35 436.093 1499.56 278.464 1527.8 120.867C1528.95 121.588 1529.18 122.178 1529.31 122.767C1541.21 186.639 1553.08 250.51 1565.02 314.381C1578.43 386.314 1592.14 458.181 1605.09 530.179C1608.87 551.153 1617.62 571.995 1608.97 594.477C1625.51 594.477 1641.25 594.477 1657 594.477C1657 594.051 1657 593.624 1657 593.198C1653.48 584.645 1648.62 576.42 1646.84 567.604ZM856.394 446.187C858.959 469.422 858.137 492.46 850.707 514.679C835.946 558.789 803.367 583.105 758.788 591.363C740.773 594.706 721.903 593.69 703.427 594.247C690.737 594.64 678.014 594.313 664.24 594.313C672.787 577.993 671.439 561.148 671.439 544.468C671.439 412.596 671.406 280.725 671.472 148.853C671.472 134.827 671.637 120.867 664.338 107.168C674.957 107.168 684.655 106.873 694.353 107.234C713.454 107.922 732.949 106.873 751.622 110.216C794.228 117.786 840.746 148.526 845.052 213.609C846.269 231.994 845.611 250.116 840.483 267.78C830.094 303.37 806.786 327.358 772.3 340.795C770.393 341.548 768.486 342.204 765.593 343.285C784.036 348.299 800.112 355.673 814.249 367.044C839.628 387.461 852.844 414.202 856.394 446.187ZM705.662 338.533C746.066 342.662 780.847 326.408 797.318 287.541C813.887 248.445 814.051 208.169 797.778 168.877C781.571 129.715 745.375 113.69 705.662 117.819C705.662 191.39 705.662 264.995 705.662 338.533ZM810.304 407.287C791.302 358.884 751.161 345.645 705.761 350.233C705.761 428.13 705.761 506.027 705.761 584.35C712.369 584.35 718.516 584.383 724.664 584.35C764.509 584.121 795.806 563.999 810.073 527.132C825.426 487.479 825.821 446.809 810.304 407.287ZM339.665 331.75C337.692 327.883 337.955 325.064 340.092 321.427C380.397 252.869 420.57 184.279 460.776 115.656C462.256 113.133 463.603 110.577 465.116 107.889C457.686 105.792 453.412 107.627 449.467 114.411C402.719 194.668 355.576 274.695 308.532 354.755C307.414 356.689 306.165 358.524 304.949 360.424C304.554 360.326 304.127 360.261 303.732 360.162C303.732 275.973 303.732 191.816 303.732 107.431C289.958 107.431 277.005 107.431 263 107.431C269.838 120.31 270.068 133.385 270.068 146.592C270.002 292.883 270.035 439.206 270.035 585.497C270.035 588.348 270.298 591.199 270.43 593.821C281.936 593.821 292.686 593.821 303.765 593.821C303.765 590.773 303.765 588.25 303.765 585.727C303.765 520.217 303.765 454.675 303.831 389.165C303.831 386.51 303.962 383.495 305.179 381.234C308.861 374.319 313.069 367.732 317.474 360.359C318.789 362.751 319.841 364.521 320.761 366.356C347.16 418.561 373.822 470.601 399.793 523.002C411.299 546.205 425.929 568.096 431.353 593.887C446.508 593.887 461.467 593.887 476.293 593.887C469.324 582.679 461.73 572.127 455.878 560.722C416.987 484.464 378.457 408.041 339.665 331.75ZM1092.27 455.527C1080.11 390.214 1067.95 324.868 1055.81 259.555C1047.69 215.871 1039.64 172.154 1031.42 128.502C1029.19 116.639 1019.75 107.594 1009.13 107.267C998.283 106.939 987.434 107.201 975.632 107.201C981.254 121.915 981.089 136.105 978.492 150.525C967.249 213.019 956.071 275.481 944.861 337.976C931.317 413.579 917.739 489.183 904.227 564.819C902.485 574.486 900.907 584.154 899.263 593.952C903.307 593.952 906.43 593.952 909.685 593.952C937.957 436.028 966.164 278.464 994.371 120.867C1007.26 183.394 1018.83 245.824 1030.43 308.22C1043.88 380.349 1057.79 452.38 1070.61 524.608C1074.65 547.384 1084.35 569.996 1075.87 593.854C1091.71 593.854 1107.07 593.854 1121.76 593.854C1118.87 585.038 1115.15 576.616 1113.41 567.834C1106.05 530.442 1099.28 492.984 1092.27 455.527ZM578.765 112.182C579.061 110.642 579.685 109.167 580.178 107.594C564.464 107.594 549.276 107.594 535.633 107.594C537.244 119.032 540.202 130.239 540.235 141.447C540.564 280.758 540.564 420.101 540.202 559.411C540.169 569.57 536.849 579.73 535.041 589.856C534.811 591.2 534.351 592.543 533.923 594.116C549.506 594.116 564.628 594.116 578.929 594.116C577.154 583.4 574.031 573.274 573.998 563.147C573.669 421.477 573.702 279.84 573.998 138.17C573.965 129.551 577.055 120.867 578.765 112.182ZM973.134 427.868C980.826 435.536 988.716 443.434 996.179 450.873C1003.74 443.368 1011.7 435.536 1019.36 427.933C1011.7 420.396 1003.71 412.564 996.113 405.092C988.848 412.301 980.892 420.166 973.134 427.868ZM1506.89 427.409C1514.78 435.307 1522.64 443.172 1529.28 449.824C1536.78 442.582 1544.83 434.848 1552.65 427.278C1545.19 419.839 1537.4 412.072 1529.91 404.6C1522.18 412.301 1514.22 420.166 1506.89 427.409Z" fill="#B1B1B1"/>
</g>
<defs>
<clipPath id="clip0_1732_13366">
<rect width="1920" height="704" fill="white"/>
</clipPath>
</defs>
</svg>
