<svg width="1920" height="704" viewBox="0 0 1920 704" fill="none" xmlns="http://www.w3.org/2000/svg">
<g clip-path="url(#clip0_1732_13368)">
<path d="M632.843 401.316C632.921 398.321 633.103 395.326 633.051 392.331C632.296 355.821 631.254 319.31 630.89 282.799C630.786 272.069 628.598 262.642 621.931 254.126C620.004 251.679 619.587 248.085 618.468 244.986C621.541 243.996 624.614 242.251 627.739 242.147C643.989 241.522 660.239 241.21 676.515 241.105C679.38 241.105 683.547 241.809 684.719 243.684C685.812 245.428 684.51 249.751 682.896 251.913C675.968 261.106 674.536 271.236 674.849 282.512C676.307 332.982 677.375 383.477 678.078 433.973C678.234 445.249 680.057 455.301 687.401 464.207C689.12 466.291 690.604 470.536 689.588 472.385C688.547 474.26 684.38 475.093 681.515 475.197C669.276 475.744 656.984 475.484 644.744 476.239C637.426 476.708 632.504 474.103 627.817 468.634C587.139 421.238 546.227 374.024 505.393 326.784C503.049 324.075 500.575 321.471 496.331 316.81C495.784 322.018 495.237 324.596 495.263 327.148C496.044 366.211 496.461 405.326 498.102 444.363C498.414 452.02 503.57 459.468 506.461 467.02C507.633 470.093 508.701 473.192 509.794 476.265C506.721 477.254 503.674 478.973 500.575 479.077C484.039 479.702 467.502 479.989 450.939 480.223C442.007 480.353 439.872 477.333 445.028 470.275C452.242 460.379 453.413 449.754 453.101 437.983C451.669 387.514 450.627 337.018 449.872 286.549C449.715 275.611 448.153 265.741 440.939 257.043C439.194 254.96 437.684 250.663 438.674 248.866C439.715 246.965 443.934 246.158 446.799 246.053C459.039 245.533 471.33 245.715 483.57 245.038C490.836 244.647 495.836 247.251 500.523 252.694C541.019 299.882 581.722 346.888 622.4 393.92C624.926 396.837 627.687 399.545 630.343 402.358C631.15 401.967 631.983 401.654 632.843 401.316Z" fill="#B5B7B9"/>
<path d="M1318.32 343.553C1318.32 366.496 1316.11 385.95 1308.22 404.388C1294.73 435.924 1270.4 455.248 1238.22 464.987C1206.13 474.675 1173.5 475.534 1141.08 467.071C1099.31 456.185 1071.78 430.273 1061.03 387.799C1054.49 361.887 1054.13 335.793 1060.4 309.881C1069.02 274.464 1090.43 249.464 1124.36 236.052C1161.13 221.495 1199.08 220.14 1236.86 230.896C1284.55 244.464 1310.07 277.745 1316.73 326.209C1317.67 332.98 1317.98 339.855 1318.32 343.553ZM1184.88 263.865C1144.88 264.828 1117.17 284.099 1108.84 318.84C1105.71 331.913 1104.83 346.053 1105.82 359.491C1107.93 388.398 1119.44 412.903 1147.56 425.221C1175.09 437.279 1203.35 436.68 1230.3 423.164C1257.12 409.726 1267.1 385.377 1268.66 357.017C1271.84 299.1 1241.68 262.354 1184.88 263.865Z" fill="#B5B7B9"/>
<path d="M1457.21 222.355C1485.31 224.074 1513.77 223.475 1541.43 228.007C1590.67 236.054 1621.3 271.471 1624.79 321.471C1625.99 338.399 1626.17 355.873 1623.36 372.514C1615.88 416.811 1586.53 444.937 1540.83 453.452C1527.7 455.9 1514.27 457.228 1500.96 457.697C1467.03 458.895 1433.09 459.364 1399.16 459.911C1396.06 459.963 1392.91 458.374 1389.78 457.567C1390.72 454.442 1390.93 450.77 1392.73 448.244C1398.85 439.702 1400.59 430.483 1400.31 420.066C1398.87 369.024 1397.78 317.982 1397.05 266.939C1396.89 255.976 1395.07 246.184 1387.99 237.46C1386.11 235.168 1384.91 231.08 1385.62 228.397C1386.01 226.887 1390.9 225.897 1393.82 225.819C1414.91 225.168 1436.01 224.829 1457.13 224.361C1457.13 223.71 1457.18 223.033 1457.21 222.355ZM1445.25 341.732L1446.79 414.467C1446.82 414.754 1446.82 415.04 1446.82 415.327C1446.43 420.743 1448.22 424.233 1454.39 423.947C1475.78 423.009 1497.26 423.348 1518.46 420.952C1549.97 417.41 1571.71 397.853 1577.08 367.305C1579.84 351.602 1580.1 334.701 1577.57 318.945C1571.48 281.028 1546.32 260.221 1507.78 259.049C1489.84 258.502 1471.84 259.726 1453.87 259.465C1445.38 259.335 1443.27 262.695 1443.59 270.663C1444.52 294.362 1444.76 318.06 1445.25 341.732Z" fill="#B5B7B9"/>
<path d="M1807.86 451.34C1775.33 452.043 1742.83 452.772 1710.31 453.319C1707.42 453.371 1704.5 452.069 1701.58 451.392C1702.34 448.241 1702.23 444.491 1703.98 442.095C1710.62 433.058 1712.1 423.24 1711.79 412.251C1710.38 361.755 1709.26 311.286 1708.59 260.79C1708.43 249.514 1706.56 239.462 1699.26 230.529C1697.49 228.368 1695.93 224.305 1696.84 222.222C1697.65 220.373 1701.97 219.279 1704.76 219.201C1766.95 217.717 1829.14 216.519 1891.3 215.008C1897.63 214.852 1900.78 216.831 1901.82 223.16C1903.41 232.717 1905.7 242.144 1907.21 251.702C1907.65 254.462 1906.4 257.457 1905.96 260.374C1903.3 259.905 1900.05 260.243 1898.1 258.811C1887.78 251.259 1876.3 250.321 1863.98 250.764C1831.19 251.91 1798.38 252.483 1765.57 252.874C1757.96 252.952 1754.81 255.061 1755.36 263.238C1756.27 276.884 1756.3 290.608 1756.32 304.307C1756.35 310.166 1758.59 312.458 1764.5 312.275C1790.75 311.546 1817.03 311.676 1843.2 310.114C1850.26 309.697 1857.24 304.801 1863.85 301.181C1872.21 296.598 1874.53 297.483 1874.81 306.859C1875.2 320.843 1875.54 334.802 1875.67 348.786C1875.75 357.146 1872.57 359.307 1866.04 354.359C1855.75 346.573 1844.58 345.271 1832.21 345.87C1810.57 346.885 1788.87 347.172 1767.18 347.276C1759.99 347.302 1756.95 349.229 1757.36 357.042C1758.22 373.266 1758.41 389.542 1758.46 405.818C1758.48 412.277 1760.41 414.959 1767.36 414.777C1807.86 413.657 1848.38 413.318 1888.85 411.704C1895.93 411.417 1902.78 406.131 1909.81 403.396C1912.55 402.329 1915.57 401.938 1918.43 401.209C1918.98 404.073 1920.28 407.016 1919.94 409.751C1918.75 419.933 1916.56 430.011 1915.62 440.194C1914.97 447.121 1912.13 449.256 1905.33 449.334C1872.89 449.777 1840.36 450.637 1807.86 451.34Z" fill="#B5B7B9"/>
<path d="M72.4749 255.298C97.5273 254.777 122.58 253.527 147.606 254.074C156.981 254.283 166.669 257.564 175.549 261.158C207.711 274.127 222.347 300.898 219.482 339.778C217.164 371.341 196.852 394.258 163.127 402.175C152.945 404.571 142.346 405.847 131.877 406.368C111.382 407.357 90.8345 407.566 70.3134 407.774C63.881 407.852 60.9383 409.831 61.2768 416.733C61.9019 429.832 60.9904 443.087 62.605 456.03C63.4904 463.191 68.3342 469.832 71.1989 476.811C72.3187 479.52 74.376 483.218 73.3864 485.041C72.3447 486.968 68.178 487.931 65.3394 488.036C47.9694 488.661 30.5733 488.999 13.1773 489.234C4.03652 489.364 1.7969 485.952 7.08343 478.608C14.1669 468.738 15.7033 458.139 15.3648 446.342C13.9585 395.899 12.9168 345.456 12.1356 294.986C11.9533 284.621 10.0262 275.377 3.48963 267.095C1.56252 264.647 1.11981 261.027 0 257.954C3.33338 256.939 6.64072 255.168 10.0001 255.064C30.8077 254.361 51.6153 254.048 72.4228 253.605C72.4489 254.178 72.4489 254.751 72.4749 255.298ZM59.5841 330.612C59.8445 342.304 60.1831 353.997 60.2873 365.69C60.3133 370.612 62.3706 373.321 67.3967 373.164C91.3293 372.461 115.34 372.643 139.169 370.612C161.304 368.737 173.935 351.706 173.257 328.138C172.58 304.83 159.351 288.971 137.398 288.111C113.778 287.2 90.0793 288.372 66.4332 288.58C60.4956 288.632 58.5685 291.627 58.8029 297.278C59.2716 308.372 59.3237 319.466 59.5841 330.612Z" fill="#B5B7B9"/>
<path d="M988.298 384.59C989.73 389.616 991.084 392.585 991.345 395.632C993.116 417.299 983.428 434.305 968.636 448.81C953.323 463.81 934.677 472.821 913.583 476.102C881.057 481.154 849.234 478.524 819.207 464.097C793.061 451.544 775.04 431.153 765.222 403.914C753.894 372.585 753.034 340.657 763.529 309.069C778.139 265.162 810.874 242.062 854.937 233.703C887.281 227.557 919.104 228.286 948.766 245.266C956.058 249.458 962.438 245.682 968.818 242.271C980.616 235.969 982.412 237.062 982.569 250.396C982.803 266.386 983.09 282.349 982.985 298.339C982.959 301.074 981.136 303.808 980.121 306.542C977.543 305.162 974.392 304.355 972.49 302.324C943.974 271.985 908.635 262.584 868.739 269.797C830.067 276.803 806.837 305.813 805.796 347.949C805.483 360.866 806.941 374.356 810.483 386.752C820.952 423.263 854.156 443.706 895.38 441.075C932.282 438.706 961.266 422.742 982.022 392.012C983.324 389.955 985.121 388.262 988.298 384.59Z" fill="#B5B7B9"/>
<path d="M301.258 366.184C300.711 340.507 299.904 314.882 299.748 289.204C299.695 278.813 297.586 269.595 291.049 261.313C289.148 258.891 288.758 255.245 287.664 252.173C290.711 251.131 293.732 249.334 296.831 249.204C313.94 248.579 331.05 248.24 348.16 248.11C350.972 248.084 355.217 248.917 356.259 250.766C357.3 252.641 355.868 256.834 354.227 259.048C347.326 268.267 345.946 278.371 346.259 289.647C347.717 340.09 348.785 390.56 349.488 441.029C349.644 452.305 351.545 462.331 358.837 471.238C360.556 473.321 362.04 477.566 361.05 479.415C360.061 481.264 355.842 482.097 353.003 482.176C335.607 482.775 318.211 483.087 300.841 483.373C291.544 483.53 289.409 480.353 294.747 472.853C301.805 462.957 303.498 452.383 303.029 440.586C301.961 415.794 301.779 390.976 301.258 366.184Z" fill="#B5B7B9"/>
</g>
<defs>
<clipPath id="clip0_1732_13368">
<rect width="1920" height="704" fill="white"/>
</clipPath>
</defs>
</svg>
