<svg width="75" height="75" viewBox="0 0 75 75" fill="none" xmlns="http://www.w3.org/2000/svg">
<mask id="mask0_4_199" style="mask-type:luminance" maskUnits="userSpaceOnUse" x="0" y="0" width="75" height="75">
<path d="M0.183594 0.0850601H74.5946V74.496H0.183594V0.0850601Z" fill="white"/>
</mask>
<g mask="url(#mask0_4_199)">
<path d="M53.0707 37.4327C53.0707 37.3829 53.0742 37.3349 53.0742 37.2869C53.0742 35.7954 52.8636 34.3536 52.4796 32.9865L73.0768 26.8727C72.0681 23.4451 70.5798 20.1864 68.6456 17.182L50.6533 28.878C49.8446 27.5945 48.8606 26.4389 47.7298 25.4416L61.712 9.17841C59.0239 6.84419 56.0278 4.91352 52.8017 3.43796L43.9516 22.9758C42.6031 22.35 41.1519 21.9127 39.63 21.6922L42.6031 0.449505C40.8865 0.207727 39.1345 0.0850601 37.3967 0.0850601H37.3949C35.6146 0.0850601 33.822 0.21306 32.0664 0.467283L35.1103 21.6993C33.5901 21.9216 32.1408 22.366 30.7958 22.9953L21.8784 3.48773C18.6594 4.97396 15.6687 6.91352 12.9876 9.25486L27.0229 25.4753C25.8956 26.4762 24.9134 27.6353 24.11 28.9207L6.0788 17.2851C4.15517 20.2967 2.67572 23.5607 1.68117 26.99L22.2961 33.038C21.9191 34.3909 21.7156 35.8149 21.7156 37.2887C21.7156 37.3563 21.7192 37.422 21.7209 37.4914L0.192871 37.5145C0.19818 41.086 0.706077 44.6238 1.70417 48.0354L22.4058 41.9163C22.8464 43.3598 23.4888 44.7127 24.2976 45.9483L6.12481 57.7296C8.04137 60.7199 10.372 63.415 13.0495 65.7457L27.2335 49.2834C28.3537 50.2416 29.6084 51.0434 30.9657 51.6603L21.9545 71.495C25.193 72.9812 28.6227 73.9892 32.1496 74.4923L35.1988 52.8905C35.9172 52.9901 36.6499 53.047 37.3967 53.047C38.1435 53.047 38.8903 52.9901 39.6123 52.887L42.6862 74.4852C46.2114 73.9786 49.6411 72.9688 52.876 71.4772L43.8436 51.6514C45.2009 51.0363 46.4539 50.2309 47.5741 49.2709L61.7739 65.7172C64.4479 63.3865 66.7768 60.6861 68.6898 57.6959L50.5047 45.9323C51.3134 44.6967 51.9522 43.342 52.3911 41.8985L73.0998 47.9963C74.0926 44.5865 74.5987 41.0452 74.5987 37.4754V37.4345H53.0707V37.4327Z" fill="#072AC8"/>
</g>
</svg>
